<?xml version="1.0" standalone="no"?>
<!DOCTYPE svg PUBLIC "-//W3C//DTD SVG 20010904//EN"
 "http://www.w3.org/TR/2001/REC-SVG-20010904/DTD/svg10.dtd">
<svg version="1.0" xmlns="http://www.w3.org/2000/svg"
 width="472.000000pt" height="471.000000pt" viewBox="0 0 472.000000 471.000000"
 preserveAspectRatio="xMidYMid meet">
<metadata>
Created by potrace 1.16, written by Peter Selinger 2001-2019
</metadata>
<g transform="translate(0.000000,471.000000) scale(0.100000,-0.100000)"
fill="#000000" stroke="none">
<path d="M2106 4609 c-418 -34 -884 -223 -1231 -498 -91 -72 -305 -287 -376
-376 -229 -291 -379 -616 -456 -985 -27 -130 -28 -146 -28 -430 0 -283 1 -301
28 -430 134 -654 518 -1198 1090 -1542 195 -118 420 -210 642 -263 240 -57
335 -69 580 -68 193 0 238 3 369 27 265 47 436 101 654 206 524 252 908 659
1149 1215 99 230 163 561 163 852 0 197 -33 457 -75 593 -69 220 -100 298
-183 460 -45 87 -172 292 -192 310 -3 3 -28 33 -54 68 -109 143 -332 347 -511
468 -456 308 -986 441 -1569 393z m190 -167 c28 -19 44 -59 44 -110 0 -80 -27
-122 -79 -122 -61 0 -87 163 -36 220 18 20 51 26 71 12z m111 -4 c4 -7 16 -31
25 -53 l17 -40 0 48 c1 40 4 47 21 47 19 0 20 -7 21 -107 l0 -108 37 103 c34
94 38 102 63 102 24 0 27 -4 33 -52 3 -29 6 -81 6 -116 0 -60 -1 -63 -22 -60
-15 2 -24 11 -26 26 -4 27 -32 29 -39 3 -4 -15 -14 -19 -48 -19 -49 0 -57 6
-76 63 l-14 40 -5 -50 c-4 -42 -8 -50 -25 -50 -19 0 -20 6 -16 110 1 61 5 113
8 118 7 11 31 8 40 -5z m-303 -34 c5 -18 2 -30 -9 -38 -12 -9 -13 -21 -5 -71
14 -84 13 -93 -11 -100 -11 -4 -22 -5 -25 -3 -2 3 -9 41 -16 86 -7 56 -15 82
-25 82 -7 0 -13 9 -13 20 0 11 -1 23 -2 27 -3 8 40 20 78 22 16 1 24 -7 28
-25z m622 3 c2 -7 -2 -45 -9 -86 -12 -61 -12 -73 -1 -77 8 -2 21 -6 30 -9 11
-3 13 -11 8 -27 -9 -32 -9 -32 -62 -22 -54 10 -52 -1 -25 147 13 74 18 87 34
87 11 0 22 -6 25 -13z m-757 -59 c39 -85 61 -139 61 -149 0 -15 -50 -10 -56 6
-10 24 -34 18 -34 -9 0 -20 -6 -24 -47 -30 -39 -5 -50 -3 -61 11 -7 10 -22 29
-33 43 l-20 25 5 -25 c18 -73 18 -77 1 -84 -10 -3 -19 -5 -21 -4 -5 6 -54 196
-54 212 0 27 38 18 70 -16 l29 -33 -9 35 c-13 46 -13 47 10 53 21 5 22 5 57
-138 l18 -70 3 112 c3 115 3 116 45 122 4 0 21 -27 36 -61z m1078 -16 c20 -12
33 -60 26 -94 -17 -92 -78 -147 -127 -115 -31 21 -37 59 -19 120 23 77 77 117
120 89z m-1375 -29 c11 -10 18 -30 18 -55 0 -27 8 -50 25 -72 29 -38 31 -52 9
-60 -26 -10 -32 -7 -54 30 -28 44 -36 38 -16 -10 14 -33 14 -37 -4 -46 -10 -5
-21 -10 -24 -10 -7 0 -76 182 -76 201 0 35 90 52 122 22z m1486 -12 c10 -6 7
-24 -17 -85 -17 -42 -31 -79 -31 -81 0 -11 31 -4 35 8 33 104 49 137 66 137
27 0 24 -29 -11 -113 -43 -101 -77 -121 -125 -73 -26 26 -24 44 8 133 30 82
43 95 75 74z m-1624 -27 c10 -26 7 -34 -19 -46 -34 -15 -32 -31 4 -23 24 5 30
2 36 -16 6 -16 2 -26 -15 -39 -27 -21 -12 -34 23 -21 21 8 26 6 36 -16 7 -14
10 -27 9 -28 -19 -14 -99 -47 -104 -42 -12 11 -76 171 -78 192 -1 13 10 25 34
37 44 22 66 22 74 2z m1809 -56 c21 -15 27 -28 27 -54 0 -25 -8 -43 -27 -62
-16 -15 -32 -45 -38 -66 -11 -44 -23 -52 -48 -34 -13 11 -15 20 -7 53 9 41 5
39 -26 -12 -10 -14 -15 -16 -30 -7 -25 15 -23 23 32 127 50 96 55 98 117 55z
m-1929 -3 c14 -21 14 -25 1 -33 -13 -7 -10 -19 21 -79 37 -71 38 -93 5 -93
-11 0 -28 23 -51 69 -19 41 -38 67 -45 65 -11 -5 -51 43 -43 51 7 6 83 44 89
45 4 0 14 -11 23 -25z m-64 -152 c23 -40 39 -77 35 -83 -10 -17 -34 -11 -71
16 -40 31 -41 28 -13 -20 21 -35 19 -56 -5 -56 -12 0 -126 171 -126 189 0 21
41 22 75 1 l35 -22 -20 35 c-20 34 -20 36 -3 46 22 12 33 -1 93 -106z m2101
93 c1 -6 0 -29 -1 -51 l-1 -40 20 33 c22 34 28 37 49 24 9 -6 0 -31 -37 -96
-58 -104 -62 -109 -85 -100 -15 6 -17 15 -13 48 3 23 8 50 12 61 3 11 -6 1
-20 -22 -44 -70 -81 -53 -44 19 46 90 88 148 104 142 8 -4 15 -11 16 -18z
m-1175 -232 c-14 -71 -33 -191 -42 -266 -16 -132 -18 -137 -43 -147 -14 -5
-66 -27 -116 -49 -141 -62 -137 -61 -129 -10 20 131 130 391 212 500 50 66
120 124 134 110 6 -6 -1 -63 -16 -138z m117 99 c24 -75 67 -359 67 -439 0 -42
-1 -45 -22 -38 -13 4 -32 13 -43 20 -25 18 -46 18 -81 -1 l-29 -15 -3 57 c-3
56 19 252 39 343 30 136 47 153 72 73z m148 -30 c60 -64 112 -152 159 -268 55
-136 113 -335 96 -335 -2 0 -64 27 -138 59 -156 69 -150 60 -168 256 -13 138
-34 267 -50 309 -28 74 23 63 101 -21z m1073 62 c17 -13 17 -18 6 -47 -30 -75
-81 -178 -89 -178 -17 0 -33 29 -26 49 7 23 -12 38 -28 22 -15 -15 -37 -14
-43 4 -4 9 23 41 73 89 43 42 80 75 83 75 3 0 13 -6 24 -14z m-1456 -32 c-83
-91 -182 -295 -234 -483 -45 -160 -48 -165 -136 -202 -43 -17 -78 -35 -78 -40
0 -4 32 -8 71 -8 l72 0 -7 -31 c-3 -17 -6 -40 -6 -50 0 -18 -10 -19 -130 -19
-123 0 -130 -1 -130 -20 0 -19 7 -20 126 -20 115 0 125 -1 120 -17 -8 -29 -56
-459 -56 -508 0 -24 -4 -47 -10 -50 -7 -4 -10 78 -10 239 l0 246 -45 0 -45 0
-1 -210 c-2 -240 -1 -236 -16 -233 -6 1 -23 4 -37 7 -15 3 -42 9 -59 15 -18 5
-54 12 -81 16 l-48 7 7 66 c27 279 150 666 281 885 109 183 249 329 388 404
76 41 99 43 64 6z m475 -3 c279 -139 534 -563 635 -1060 27 -129 41 -208 47
-257 6 -59 1 -64 -70 -78 -22 -5 -42 -9 -45 -10 -3 -1 -29 -9 -59 -18 -30 -9
-58 -17 -63 -17 -4 0 -8 108 -8 240 l0 240 -50 0 -50 0 -1 -207 -2 -208 -13
130 c-8 72 -21 173 -29 225 -8 52 -15 107 -15 123 l0 27 115 0 c108 0 115 1
115 20 0 19 -7 20 -120 20 -88 0 -122 3 -124 13 -3 6 -7 27 -10 45 l-6 33 70
-3 c38 -1 71 0 74 3 3 3 -31 21 -76 40 -69 29 -83 39 -90 64 -5 17 -15 50 -23
75 -47 159 -79 250 -118 333 -45 96 -111 201 -141 226 -16 13 -22 31 -10 31 3
0 33 -14 67 -30z m-1562 -63 c9 -32 30 -74 45 -94 20 -26 25 -40 17 -51 -16
-27 -28 -24 -58 17 -17 22 -54 54 -82 72 -29 17 -53 37 -53 45 0 19 36 27 61
13 20 -10 21 -9 15 15 -8 32 0 48 22 44 10 -2 22 -25 33 -61z m874 11 c-111
-100 -156 -151 -230 -263 -63 -96 -139 -246 -190 -374 -44 -112 -118 -401
-135 -526 -19 -145 -9 -131 -94 -138 -90 -7 -141 -28 -61 -26 28 1 70 1 94 0
l44 -1 -7 -65 c-4 -36 -9 -70 -11 -77 -4 -10 -34 -12 -119 -10 -127 4 -118 8
-131 -70 l-7 -36 79 -7 c186 -18 178 -15 181 -58 l3 -37 -163 2 -163 3 -6 -42
c-3 -24 -3 -43 0 -44 3 0 78 -6 166 -12 l160 -12 0 -30 0 -30 -105 0 c-58 1
-139 3 -182 5 l-76 5 -7 111 c-14 219 26 515 102 759 40 128 172 406 222 467
6 7 38 50 71 94 77 105 205 230 317 310 48 35 92 64 96 64 5 0 21 9 36 19 30
22 138 69 160 70 8 1 -12 -23 -44 -51z m918 3 c489 -246 814 -788 878 -1465
14 -147 6 -375 -13 -387 -6 -4 -89 -8 -185 -9 l-173 -1 0 35 c0 41 3 42 193
52 70 3 130 10 133 15 3 5 2 9 -3 9 -4 0 -9 19 -10 41 -2 63 5 62 -225 43
l-78 -7 0 36 c0 42 6 44 143 53 90 7 106 11 91 27 -4 3 -8 25 -9 48 -4 50 -18
61 -65 54 -19 -2 -64 -6 -100 -7 l-65 -3 -3 62 c-3 69 -6 66 82 78 35 5 45 10
37 18 -7 7 -27 7 -66 0 -31 -5 -58 -7 -60 -3 -3 4 -11 57 -20 116 -20 148 -31
197 -72 349 -102 373 -274 667 -498 853 -69 58 -36 55 88 -7z m847 14 c11 -13
10 -21 -8 -43 -73 -93 -76 -101 -57 -122 15 -17 16 -22 4 -37 -7 -10 -14 -19
-15 -21 -5 -7 -84 51 -84 62 0 14 128 176 139 176 5 0 14 -7 21 -15z m-482
-136 c302 -165 551 -418 711 -721 43 -82 65 -133 116 -268 18 -48 52 -190 67
-280 18 -108 15 -423 -6 -533 -43 -236 -131 -463 -245 -637 l-36 -55 -3 198
c-1 125 1 205 8 217 8 14 21 20 46 20 31 0 35 3 32 23 -3 21 -7 22 -88 22
l-85 0 3 45 c3 60 8 70 32 70 11 0 20 7 20 15 0 8 -7 15 -15 15 -13 0 -14 12
-8 83 5 45 8 181 7 302 -1 238 -12 325 -74 555 -86 320 -251 615 -460 821 -72
72 -216 189 -231 189 -5 0 -9 4 -9 9 0 13 123 -38 218 -90z m-1508 88 c0 -2
-22 -18 -50 -36 -130 -84 -340 -317 -443 -492 -219 -372 -326 -882 -273 -1306
10 -83 10 -106 -1 -126 -11 -22 -10 -25 6 -30 15 -3 21 -21 31 -78 7 -41 31
-132 55 -204 25 -76 44 -158 47 -198 7 -86 61 -201 114 -244 57 -45 96 -86
151 -159 80 -106 206 -228 317 -307 38 -27 66 -50 64 -53 -3 -2 -43 13 -89 33
-323 145 -572 354 -766 643 -123 183 -225 446 -264 677 -18 110 -20 154 -16
318 6 194 19 279 67 445 105 363 353 702 680 932 137 95 370 212 370 185z
m-759 -56 c16 -16 29 -38 29 -48 0 -12 15 -28 40 -42 43 -24 47 -30 28 -49
-17 -17 -36 -15 -71 10 l-32 23 28 -34 27 -33 -27 -33 c-34 -41 -51 -49 -70
-34 -18 16 -28 4 -28 -33 0 -17 -5 -33 -11 -35 -15 -5 -136 176 -130 194 10
25 36 25 74 1 20 -14 48 -32 62 -40 14 -8 39 -23 55 -34 20 -12 4 10 -45 64
l-74 83 39 34 c49 42 68 43 106 6z m2906 -33 c42 -40 44 -79 7 -113 -29 -27
-72 -33 -92 -13 -9 9 -18 6 -39 -14 -22 -21 -32 -25 -45 -17 -10 6 -18 15 -18
20 0 9 139 165 150 168 2 1 19 -13 37 -31z m103 -103 c11 -13 3 -24 -49 -71
-33 -31 -61 -60 -61 -65 0 -20 26 -7 82 42 48 42 61 49 73 39 19 -16 17 -19
-66 -90 -75 -64 -98 -71 -129 -40 -37 37 -26 68 48 137 71 67 82 72 102 48z
m-3187 -120 c42 -33 76 -65 77 -70 1 -26 -22 -33 -66 -19 -24 7 -44 11 -44 8
0 -2 14 -17 31 -32 26 -24 28 -29 17 -45 -12 -17 -19 -13 -93 48 -106 88 -102
83 -83 101 14 14 23 15 60 6 l43 -11 -29 23 c-21 18 -27 29 -21 45 8 25 7 25
108 -54z m3327 -62 c0 -18 -45 -63 -62 -63 -7 0 -21 -13 -30 -30 -17 -29 -56
-47 -82 -37 -8 3 -26 22 -41 41 l-27 36 28 23 c16 12 55 43 89 70 l60 47 33
-37 c17 -20 32 -43 32 -50z m-3429 -55 c48 -35 88 -68 89 -74 0 -16 -27 -37
-39 -30 -5 3 -7 -2 -5 -11 6 -22 -31 -83 -49 -83 -20 0 -182 108 -182 121 0 7
7 17 17 22 13 9 30 2 79 -31 l63 -41 21 22 c19 20 20 23 6 35 -9 6 -40 30 -68
52 -47 37 -51 43 -40 60 6 11 14 20 16 20 2 0 43 -28 92 -62z m3483 -4 c8 -22
-4 -36 -69 -75 -53 -32 -66 -51 -45 -64 18 -11 11 -31 -15 -43 -23 -10 -27 -8
-50 26 -14 20 -25 42 -25 48 0 7 21 25 48 40 26 15 65 40 86 56 45 32 61 35
70 12z m-3603 -163 c25 -25 28 -33 20 -54 -10 -27 -3 -38 32 -50 19 -7 22 -24
8 -46 -8 -12 -24 -7 -93 28 -122 64 -125 68 -87 122 29 40 79 40 120 0z m3717
-33 c7 -7 12 -27 12 -44 0 -40 -44 -81 -66 -63 -16 13 -19 39 -4 39 6 0 10 7
10 15 0 14 -4 14 -37 0 -20 -9 -43 -21 -51 -28 -12 -10 -11 -12 9 -17 35 -9
38 -47 4 -56 -65 -16 -104 41 -64 97 38 54 154 90 187 57z m-2078 -68 l0 -50
-156 0 c-143 0 -155 1 -150 18 2 9 7 32 11 50 l7 32 144 0 144 0 0 -50z m228
41 l52 -1 0 -45 0 -45 -115 0 -115 0 0 43 c0 24 3 47 7 50 3 4 31 5 62 3 31
-2 80 -5 109 -5z m406 -32 c12 -62 19 -59 -149 -59 l-155 0 0 45 0 45 149 0
149 0 6 -31z m1514 -83 c10 -23 6 -28 -77 -90 -49 -36 -93 -66 -99 -66 -18 0
-23 33 -6 51 20 22 11 39 -22 39 -13 0 -24 5 -24 10 0 6 0 13 -1 18 0 5 137
45 212 61 3 0 11 -10 17 -23z m-3901 -10 c10 -9 -18 -45 -31 -40 -8 3 -17 1
-20 -5 -7 -11 63 -51 89 -51 18 0 19 4 3 30 -10 15 -10 22 0 32 16 16 42 1 60
-36 12 -23 11 -31 -2 -52 -21 -31 -69 -32 -136 -3 -76 32 -99 80 -59 120 17
17 29 20 56 16 20 -4 38 -8 40 -11z m1753 -20 c0 -7 -3 -28 -6 -45 -6 -29 -9
-31 -50 -31 l-44 0 0 -341 0 -341 -37 23 c-21 12 -48 31 -61 42 -14 14 -26 17
-32 11 -6 -6 -3 -16 10 -27 11 -9 20 -14 20 -11 0 3 17 -11 37 -31 24 -23 44
-34 55 -32 10 3 16 2 13 -3 -8 -12 33 -43 46 -34 8 5 10 3 5 -5 -5 -7 -1 -20
7 -29 19 -22 29 -100 13 -105 -15 -6 -37 3 -31 13 8 13 -105 82 -123 75 -20
-8 -22 -7 -21 3 1 4 5 6 11 4 5 -1 8 3 5 10 -2 7 -10 12 -16 11 -6 -2 -11 1
-11 7 0 13 -100 61 -111 54 -5 -3 -9 -1 -9 5 0 5 -10 13 -22 17 -32 9 -38 22
-38 77 0 35 4 49 16 54 9 3 20 0 24 -7 4 -7 13 -9 20 -5 8 5 11 4 7 -2 -8 -13
20 -26 36 -16 7 3 9 3 5 -2 -9 -9 23 -36 34 -29 17 11 5 22 -62 60 l-70 39 0
50 c0 84 18 278 35 387 9 57 18 118 21 136 l5 32 159 0 c129 0 160 -3 160 -14z
m293 -128 c4 -79 7 -274 7 -435 0 -291 0 -292 -23 -315 -27 -28 -57 -69 -57
-81 0 -4 14 8 31 28 44 49 63 47 55 -7 -3 -24 -5 -68 -5 -99 0 -43 -4 -58 -16
-63 -9 -3 -14 -2 -11 3 3 4 -3 16 -14 26 -17 15 -22 16 -37 4 -16 -13 -17 -12
-4 3 11 15 10 19 -12 29 -39 18 -96 2 -135 -37 -19 -19 -36 -34 -39 -34 -8 0
4 1097 12 1110 4 6 54 10 124 10 l118 0 6 -142z m361 124 c3 -10 10 -49 15
-87 5 -39 14 -104 20 -145 12 -83 30 -359 24 -375 -2 -6 -64 -39 -138 -75
l-135 -65 0 337 0 338 -50 0 c-49 0 -50 1 -50 29 0 16 -3 36 -6 45 -5 14 12
16 154 16 146 0 161 -2 166 -18z m-2494 -127 c0 -14 -4 -25 -10 -25 -5 0 -10
-5 -10 -12 0 -6 13 1 29 17 26 24 35 27 68 22 64 -11 92 -66 57 -115 -11 -15
-25 -22 -50 -22 -30 0 -34 3 -34 27 0 21 -3 24 -12 15 -31 -31 -118 9 -118 55
0 34 26 63 57 63 18 0 23 -5 23 -25z m4064 -139 c87 -36 36 -129 -76 -137 -79
-5 -108 11 -108 60 0 35 26 59 82 76 56 18 62 18 102 1z m-4051 -62 c59 -20
81 -52 72 -105 -4 -21 -11 -41 -16 -44 -9 -6 -199 43 -212 54 -14 14 17 85 43
98 33 17 57 16 113 -3z m4115 -100 c2 -15 -7 -28 -30 -43 l-33 -21 36 0 c24 0
39 -5 43 -15 7 -18 10 -17 -114 -44 -114 -25 -107 -25 -113 -2 -6 24 0 31 43
59 l35 23 -45 -3 c-39 -3 -45 0 -45 17 0 17 12 22 85 36 109 22 134 20 138 -7z
m-4115 -61 c55 -6 58 -7 55 -32 -2 -19 -8 -26 -22 -24 -10 1 -50 4 -87 8 -58
6 -69 5 -69 -8 0 -11 22 -18 85 -28 78 -11 86 -14 83 -33 -3 -24 -22 -25 -120
-12 -51 6 -58 5 -58 -9 0 -12 -5 -15 -16 -11 -9 3 -20 6 -25 6 -11 0 -12 48
-2 115 l6 47 56 -6 c31 -4 82 -9 114 -13z m1202 -37 c28 -7 82 -25 120 -39
l70 -25 3 -58 c2 -31 -1 -61 -5 -65 -5 -5 -43 2 -86 15 -43 13 -74 19 -70 12
5 -8 3 -8 -8 0 -8 6 -50 17 -95 24 -45 6 -87 16 -94 20 -9 6 -11 25 -7 68 3
33 8 65 11 70 6 10 84 0 161 -22z m1750 -55 l0 -55 -95 -18 c-137 -26 -140
-27 -141 -46 -1 -14 -2 -15 -6 -1 -3 14 -9 14 -56 -1 -29 -10 -55 -16 -59 -13
-13 7 -9 80 5 91 6 5 38 18 70 28 31 10 57 22 57 26 0 5 5 6 10 3 6 -4 25 -2
43 4 17 6 35 11 39 11 4 1 22 7 40 15 18 8 47 14 63 12 29 -2 30 -3 30 -56z
m-2915 -127 l0 -57 -77 7 c-42 3 -93 6 -115 6 -34 0 -38 3 -38 25 0 25 1 25
85 25 84 0 85 0 85 25 0 21 5 25 30 25 30 0 30 0 30 -56z m2508 27 c7 -47 -6
-66 -60 -90 -29 -13 -58 -25 -64 -26 -6 -2 -29 -15 -52 -29 -23 -14 -45 -26
-48 -26 -15 0 -104 -62 -99 -69 2 -4 -6 -7 -18 -6 -18 1 -23 8 -25 41 -3 46
19 73 91 110 23 12 41 27 39 34 -1 6 2 9 6 6 5 -3 40 9 78 27 111 53 118 56
134 54 8 -1 16 -13 18 -26z m1602 -41 c0 -24 -6 -33 -32 -44 l-33 -14 33 -1
c24 -1 32 -5 32 -20 0 -25 -26 -31 -132 -31 -86 0 -88 1 -88 23 0 19 9 27 41
37 56 19 58 30 5 30 -39 0 -46 3 -46 20 0 20 -1 20 178 28 40 2 42 1 42 -28z
m-4124 -74 c18 -25 18 -57 0 -82 -12 -16 -29 -20 -115 -22 -87 -3 -102 -2
-107 13 -4 9 -3 20 2 25 7 7 82 16 167 20 4 0 7 4 7 10 0 5 -39 11 -87 12 -73
2 -88 6 -91 20 -4 22 18 27 121 25 75 -2 91 -5 103 -21z m1252 -16 c20 -5 39
-7 44 -4 4 3 8 0 8 -5 0 -6 10 -11 23 -11 30 0 47 -18 47 -48 0 -23 -2 -24
-52 -19 -29 3 -113 13 -185 23 l-133 19 0 36 c0 20 2 38 5 40 6 6 198 -18 243
-31z m1682 2 l0 -39 -107 -22 c-60 -12 -120 -23 -135 -26 -15 -2 -45 -9 -68
-15 -49 -13 -60 -8 -60 29 0 31 16 51 42 51 10 0 18 3 18 8 0 4 10 8 23 9 12
1 67 11 122 21 55 11 115 20 133 21 31 1 32 -1 32 -37z m-1366 -97 c50 -19 94
-31 100 -28 5 3 6 1 2 -5 -4 -7 -1 -13 8 -13 39 -3 103 -38 108 -58 2 -9 5
-75 7 -147 2 -126 2 -131 -20 -140 -17 -8 -29 -34 -55 -120 -85 -282 -97 -320
-104 -327 -4 -5 -24 45 -45 110 -83 260 -107 328 -122 338 -10 7 -13 25 -11
60 l3 49 165 1 c158 0 165 1 165 20 0 19 -8 20 -173 23 l-173 2 3 33 3 32 145
-2 c148 -2 153 9 10 22 -36 3 -82 8 -104 10 -44 4 -61 17 -52 40 5 13 14 16
39 11 17 -3 55 -8 82 -11 78 -9 172 -25 191 -32 12 -4 15 -3 10 5 -4 7 -14 12
-23 12 -9 0 -24 6 -32 13 -20 16 -118 48 -154 50 -15 1 -27 5 -27 9 0 7 -57
22 -63 16 -10 -8 -37 27 -37 49 0 22 3 24 33 18 17 -4 72 -22 121 -40z m956
12 c0 -35 -22 -60 -55 -65 -36 -5 -59 -10 -180 -41 -66 -17 -123 -31 -127 -31
-5 0 -8 14 -8 30 0 20 6 32 18 36 9 3 25 10 34 15 10 5 25 9 33 9 8 0 15 5 15
10 0 6 3 9 8 8 6 -2 86 21 182 52 14 5 37 9 53 9 24 1 27 -2 27 -32z m-2510
-41 c0 -17 -8 -27 -27 -34 l-28 -10 26 -1 c37 -1 46 -29 13 -41 -14 -6 -29
-10 -34 -10 -5 0 -11 -4 -14 -9 -4 -5 11 -7 34 -4 35 5 40 3 40 -14 0 -25 -38
-33 -153 -33 l-78 0 3 33 c2 27 8 33 31 35 36 4 35 22 -2 22 -25 0 -31 5 -36
31 -4 17 -5 32 -3 34 3 4 150 20 206 24 17 1 22 -4 22 -23z m4071 -9 c42 -28
49 -67 20 -96 -12 -12 -32 -21 -46 -21 -20 0 -25 5 -25 24 0 16 7 27 21 31 17
6 19 9 8 16 -32 20 -45 10 -41 -31 5 -45 3 -45 -80 -34 l-45 6 -2 49 c-1 43 2
50 27 63 43 24 123 20 163 -7z m-2852 -28 c133 -13 141 -15 141 -40 0 -18 -8
-19 -177 -14 -97 3 -180 8 -185 11 -8 5 -11 47 -4 55 6 5 85 1 225 -12z m1699
-16 c-2 -31 -7 -37 -28 -39 -23 -3 -194 -14 -267 -17 -18 -1 -33 -6 -33 -10 0
-4 -9 -3 -20 3 -12 6 -20 21 -20 35 0 27 1 27 150 48 47 7 116 13 153 15 l68
2 -3 -37z m-408 -33 c0 -26 -7 -29 -91 -35 -41 -3 -116 -10 -166 -16 -90 -10
-113 -8 -113 11 0 10 67 31 115 35 118 12 165 18 200 24 47 9 55 6 55 -19z
m-1689 -60 l139 0 0 -30 c0 -16 -3 -30 -7 -31 -52 -6 -331 -7 -339 -1 -6 4
-14 19 -18 35 -5 23 -3 29 16 36 13 5 33 5 46 0 13 -5 86 -9 163 -9z m2497 -3
c2 -10 1 -29 -2 -43 l-6 -24 -180 0 -180 0 0 28 c0 57 6 59 210 58 142 -1 155
-3 158 -19z m-1953 -22 l0 -30 -180 0 -180 0 -3 27 c-4 34 6 36 208 34 l155
-1 0 -30z m652 5 c19 -13 45 -52 47 -73 1 -4 7 -11 14 -16 9 -5 12 -24 10 -57
l-3 -49 -130 1 -130 1 -3 52 c-2 37 1 51 10 51 16 0 40 58 31 73 -4 6 -1 7 6
3 8 -6 11 -2 9 10 -2 14 2 18 16 16 10 -2 16 1 13 5 -9 14 85 -1 110 -17z
m893 -10 l0 -40 -186 0 -186 0 6 23 c3 12 6 27 6 34 0 12 49 16 268 21 l92 2
0 -40z m1054 29 c120 -23 138 -29 132 -45 -3 -9 -9 -34 -12 -55 -6 -36 -9 -40
-33 -37 -23 3 -26 7 -23 36 4 38 -14 43 -28 7 -8 -20 -13 -23 -32 -16 -15 5
-23 17 -23 31 0 35 -21 35 -28 0 -7 -30 -28 -39 -55 -22 -10 7 -10 20 -1 60
12 58 11 58 103 41z m-1466 -36 l3 -33 -180 0 c-173 0 -181 1 -181 19 0 11 4
22 9 25 5 3 69 9 142 12 74 4 136 8 139 11 2 2 18 3 35 1 26 -3 30 -7 33 -35z
m-2476 -60 c22 -20 24 -76 3 -93 -14 -11 -12 -15 15 -28 49 -24 53 -77 8 -106
-26 -17 -175 -62 -182 -55 -2 2 -6 13 -8 24 -2 17 9 24 75 45 43 14 77 30 77
38 0 13 -15 11 -100 -14 -60 -18 -70 -17 -70 6 0 16 14 24 75 42 57 17 72 25
64 34 -6 8 -8 27 -4 44 4 19 3 30 -4 30 -6 0 -11 -11 -11 -24 0 -60 -87 -99
-129 -57 -24 24 -27 59 -7 87 21 27 52 7 48 -31 -2 -17 1 -24 7 -20 6 3 11 17
11 30 0 54 89 87 132 48z m943 -16 c2 -7 6 -28 9 -48 l6 -36 -54 -12 c-53 -12
-122 -53 -159 -95 -9 -12 -29 -43 -43 -70 l-26 -50 -13 25 c-20 36 -79 274
-73 290 7 19 347 15 353 -4z m2334 8 c6 -7 -20 -135 -39 -195 -10 -30 -23 -73
-29 -95 -19 -68 -26 -73 -57 -36 -37 44 -144 183 -153 200 -5 8 -25 14 -47 15
l-39 1 3 55 c2 30 7 57 12 60 9 6 342 1 349 -5z m-1934 -7 c3 -7 6 -33 7 -58
l3 -45 -45 4 c-72 6 -162 1 -174 -8 -7 -6 -36 -3 -73 7 l-61 16 -4 44 c-2 24
-1 45 1 48 2 2 80 4 173 4 126 0 170 -3 173 -12z m1126 -43 c-1 -27 -4 -51 -5
-53 -2 -1 -68 -4 -147 -6 -79 -2 -152 -4 -161 -5 -28 -2 -23 -41 5 -41 12 0
33 -7 45 -16 22 -15 22 -19 22 -254 0 -131 -4 -249 -9 -262 -17 -42 -49 -68
-87 -68 -44 0 -54 23 -25 54 26 28 27 66 2 98 -18 23 -19 34 -11 149 5 68 12
199 16 292 l7 167 176 -2 175 -3 -3 -50z m406 4 c-4 -29 -8 -53 -10 -55 -2 -2
-81 -6 -175 -9 l-172 -4 0 53 c0 29 3 56 7 59 3 4 85 7 181 7 l175 0 -6 -51z
m1073 10 c47 -12 89 -25 93 -29 10 -9 -12 -92 -28 -102 -22 -16 -82 -8 -101
13 -16 17 -26 20 -61 15 -46 -6 -58 3 -48 34 5 16 16 20 48 21 l42 1 -32 9
c-38 11 -47 22 -38 50 4 12 13 18 23 15 9 -3 55 -15 102 -27z m-2871 -119 c92
-26 171 -179 145 -277 -6 -21 -12 -23 -70 -23 -76 0 -70 -8 -109 157 -37 158
-36 163 34 143z m1691 -17 c37 -22 54 -69 48 -139 -7 -87 -57 -124 -168 -124
l-61 0 3 132 c3 130 4 133 28 146 32 16 110 9 150 -15z m-1770 -120 c33 -139
60 -229 100 -336 20 -54 21 -59 5 -83 -9 -14 -27 -29 -41 -34 -32 -13 -96 -13
-128 0 -36 13 -71 74 -86 147 -14 71 -9 266 10 326 12 40 74 117 94 117 7 0
26 -56 46 -137z m307 96 c35 -101 115 -355 127 -405 24 -103 67 -257 88 -319
36 -106 123 -278 176 -347 28 -38 46 -68 40 -68 -30 0 -163 88 -235 155 -74
68 -196 216 -211 254 -3 8 -20 39 -39 69 -37 62 -41 77 -18 68 9 -3 43 -3 76
1 69 7 78 28 19 47 l-35 11 -3 92 c-3 106 5 128 48 137 23 4 31 11 28 23 -2
14 -15 19 -51 21 l-47 3 0 150 c0 115 3 150 12 147 7 -3 18 -20 25 -39z m758
-117 c-10 -235 -15 -266 -42 -270 -31 -5 -34 14 -31 221 3 163 5 180 22 193
11 8 29 14 39 14 19 0 19 -6 12 -158z m1267 141 c16 -14 18 -35 18 -204 0
-147 -3 -187 -12 -183 -13 6 -109 133 -116 154 -2 6 5 34 17 63 11 29 28 79
37 112 23 85 25 86 56 58z m-1563 -355 c1 -180 -5 -203 -55 -213 -25 -4 -34
-11 -34 -25 0 -17 7 -20 54 -20 60 0 66 -7 66 -84 0 -85 58 -449 77 -479 7
-12 -16 -8 -47 8 -77 40 -194 230 -265 430 -39 112 -41 125 -20 125 9 0 23 29
40 88 15 48 39 128 55 177 15 50 38 124 50 165 11 41 31 102 43 135 l22 60 6
-105 c4 -58 7 -176 8 -262z m2070 284 c25 -16 67 -41 93 -55 37 -22 45 -31 41
-48 -8 -30 -19 -31 -129 -17 -95 13 -99 14 -99 38 0 18 5 25 20 25 28 0 42 25
21 37 -18 10 -22 48 -4 48 6 0 32 -13 57 -28z m-3731 -76 c2 -10 -11 -34 -30
-54 -24 -25 -27 -33 -13 -27 44 17 75 18 75 1 0 -8 -12 -22 -27 -30 -63 -31
-165 -67 -178 -62 -23 8 -18 37 13 69 l27 29 -25 -7 c-40 -13 -54 -11 -58 6
-2 11 10 22 35 32 21 9 65 27 98 41 66 28 78 28 83 2z m2946 -120 c31 -40 56
-82 56 -92 0 -11 -26 -64 -57 -118 -56 -94 -59 -97 -88 -92 -50 11 -54 21 -56
163 l-2 132 39 40 c21 22 42 40 45 40 3 1 32 -32 63 -73z m-2876 -36 c12 -21
22 -44 22 -49 0 -6 -45 -33 -100 -61 l-100 -50 -20 40 c-25 49 -25 67 0 80 16
9 22 6 35 -20 19 -36 39 -30 30 10 -8 38 22 50 46 19 20 -26 33 -12 23 27 -4
17 -2 29 7 35 24 15 33 10 57 -31z m2681 -108 c-4 -129 -11 -146 -60 -157 -20
-5 -29 -13 -29 -26 0 -17 8 -19 90 -19 68 0 90 -3 90 -13 0 -16 -113 -154
-171 -210 -74 -72 -156 -135 -246 -191 -139 -87 -291 -142 -197 -71 98 72 238
241 304 365 14 25 30 52 36 60 14 19 107 238 128 305 9 28 19 56 21 63 2 6 12
12 21 12 14 0 16 -14 13 -118z m-87 103 c5 -5 -39 -132 -81 -237 -12 -32 -44
-37 -79 -12 -21 14 -22 22 -22 135 l0 119 88 0 c49 0 91 -2 94 -5z m-2552 -86
c0 -6 10 -19 21 -28 36 -29 18 -74 -44 -116 -63 -43 -117 -47 -141 -13 -21 29
-20 48 4 78 18 24 20 24 36 8 14 -14 15 -20 5 -32 -20 -24 10 -31 46 -12 38
19 57 42 47 57 -5 9 -10 6 -15 -10 -12 -30 -39 -38 -55 -16 -22 30 -17 42 29
69 45 28 67 32 67 15z m2982 -62 c21 -29 50 -67 64 -85 l27 -33 -90 -88 c-170
-165 -307 -262 -511 -358 -158 -74 -175 -70 -54 12 162 108 381 365 481 563
12 23 27 42 34 42 6 -1 29 -24 49 -53z m-865 -171 c-7 -74 -96 -295 -155 -386
-77 -118 -195 -216 -179 -147 37 159 49 234 62 392 3 39 8 86 11 106 l5 37 88
4 c66 3 96 9 122 25 19 12 38 22 43 22 5 1 6 -23 3 -53z m-1207 24 c0 -5 8
-10 19 -10 13 0 30 -22 57 -72 43 -84 103 -176 152 -233 57 -68 156 -166 185
-183 27 -16 36 -32 18 -32 -21 0 -161 70 -251 125 -72 45 -126 90 -225 190
-71 72 -138 145 -148 163 l-18 32 63 1 c35 0 79 6 98 13 45 17 50 18 50 6z
m904 -72 c-13 -155 -47 -376 -70 -455 -17 -61 -38 -69 -53 -20 -21 68 -55 295
-67 450 l-6 87 101 0 101 0 -6 -62z m616 57 c0 -11 -28 -66 -64 -125 -61 -100
-167 -230 -236 -288 -68 -57 -195 -135 -211 -130 -5 2 11 30 36 63 59 76 134
230 181 373 l38 112 128 0 c70 0 128 -2 128 -5z m702 -281 c59 -30 77 -132 35
-195 -48 -71 -143 -76 -209 -9 -32 31 -38 44 -38 79 0 51 20 93 57 119 48 34
96 36 155 6z m-2619 -88 c88 -36 116 -142 57 -210 -61 -70 -148 -70 -209 -1
-58 66 -36 170 44 206 48 22 66 23 108 5z m2111 -211 c25 -42 46 -80 46 -85 0
-5 -8 -14 -18 -19 -14 -8 -27 -4 -55 14 -48 33 -62 31 -36 -4 12 -16 19 -37
16 -45 -7 -17 -47 -23 -47 -7 0 4 -18 41 -40 81 -22 40 -40 77 -40 81 0 20 50
20 79 0 39 -28 47 -26 26 5 -9 14 -14 32 -11 40 11 30 36 11 80 -61z m-1660
-15 c25 -9 25 -9 11 -57 -28 -89 -28 -87 10 -104 31 -15 35 -15 35 -1 0 28 35
122 45 122 20 -1 116 -36 116 -43 -1 -4 -1 -14 -1 -23 0 -13 -7 -15 -40 -9
-44 7 -57 -9 -15 -19 15 -4 25 -14 25 -25 0 -26 -8 -30 -41 -21 -44 13 -32
-10 13 -26 l36 -12 28 64 c25 57 32 64 56 64 36 0 43 -18 52 -127 5 -69 4 -83
-8 -83 -28 0 -46 12 -46 31 0 22 -32 26 -49 5 -9 -11 -23 -10 -83 6 -85 23
-108 34 -104 51 1 6 1 9 -1 5 -8 -13 -46 -8 -90 12 l-42 19 25 78 c14 43 27
84 30 91 4 15 6 15 38 2z m1433 -103 c61 -74 62 -77 42 -88 -16 -8 -27 -8 -44
1 -31 16 -50 9 -50 -20 0 -20 -9 -26 -54 -38 -51 -15 -55 -14 -65 2 -31 51
-35 52 -29 9 6 -42 5 -43 -24 -43 -25 0 -32 5 -41 33 l-10 32 -1 -31 c-1 -38
-14 -49 -64 -58 -21 -4 -44 -9 -51 -12 -15 -6 -30 28 -45 101 -6 28 -13 60
-17 71 -5 19 0 22 33 28 21 4 47 10 59 12 12 3 28 -2 38 -11 15 -15 16 -15 16
3 0 21 54 42 108 42 39 0 67 -37 59 -77 -4 -20 2 -36 21 -58 l25 -30 -7 35
c-4 19 -9 62 -13 94 -5 50 -3 61 13 73 10 7 23 12 28 10 6 -2 39 -38 73 -80z
m-963 -27 c13 -4 30 -23 39 -42 l17 -33 0 38 c0 38 9 44 44 31 13 -5 16 -24
16 -99 0 -96 -5 -107 -42 -97 -14 3 -18 16 -19 56 -1 48 -1 49 -10 19 -12 -43
-55 -65 -107 -57 -63 10 -64 12 -52 90 18 121 16 117 57 109 19 -3 45 -10 57
-15z m429 -27 c20 -18 23 -43 5 -43 -7 0 -6 -5 4 -12 9 -7 19 -36 22 -65 6
-50 6 -53 -16 -53 -13 0 -39 -2 -59 -6 -31 -5 -39 -2 -62 25 -28 33 -43 40
-33 16 9 -24 -4 -45 -30 -45 -18 0 -29 11 -46 43 l-23 42 -3 -42 c-3 -38 -6
-43 -28 -43 -20 0 -24 5 -24 33 0 17 -3 62 -7 100 l-6 67 31 0 c25 0 36 -8 57
-37 l25 -38 0 38 c0 33 3 37 25 37 21 0 25 -5 25 -32 l1 -33 15 28 c26 48 85
57 127 20z"/>
</g>
</svg>
